<svg width="36" height="37" viewBox="0 0 36 37" fill="none" xmlns="http://www.w3.org/2000/svg">
<g clip-path="url(#clip0_992_3268)">
<path d="M35.7129 18.3135C35.7129 8.39099 27.7187 0.347656 17.8587 0.347656C7.99423 0.349888 0 8.39099 0 18.3157C0 27.2808 6.53019 34.7126 15.0645 36.0606V23.5068H10.534V18.3157H15.069V14.3543C15.069 9.8528 17.7359 7.3666 21.8134 7.3666C23.7684 7.3666 25.8105 7.71699 25.8105 7.71699V12.1359H23.5587C21.3425 12.1359 20.6507 13.5218 20.6507 14.9435V18.3135H25.6007L24.8107 23.5046H20.6484V36.0584C29.1827 34.7104 35.7129 27.2785 35.7129 18.3135Z" fill="black"/>
</g>
<defs>
<clipPath id="clip0_992_3268">
<rect width="35.7129" height="35.7129" fill="white" transform="translate(0 0.347656)"/>
</clipPath>
</defs>
</svg>
