<svg width="650" height="206" viewBox="0 0 650 206" fill="none" xmlns="http://www.w3.org/2000/svg">
<path d="M2.62907 43.9263V1.58711H29.4237V9.93398H10.9759V17.0711H25.3712V25.418H10.9759V35.5794H29.4237V43.9263H2.62907ZM36.0609 43.9263V13.684H44.4078V15.9219C45.436 14.9542 46.6256 14.1981 47.9764 13.6538C49.3272 13.1094 50.7587 12.8372 52.2708 12.8372C54.3273 12.8372 56.2124 13.311 57.9261 14.2586C59.66 15.2062 61.0511 16.4663 62.0995 18.0389C63.1681 16.4663 64.5592 15.2062 66.2729 14.2586C67.9867 13.311 69.8617 12.8372 71.898 12.8372C74.0956 12.8372 76.0815 13.3715 77.8557 14.4401C79.6501 15.5086 81.0816 16.9401 82.1501 18.7345C83.2187 20.5087 83.753 22.4946 83.753 24.6922V43.9263H75.4061V26.9906C75.4061 25.9422 75.144 24.9946 74.6198 24.1478C74.1158 23.2809 73.4404 22.5954 72.5936 22.0914C71.7468 21.5672 70.7992 21.3051 69.7508 21.3051C68.7024 21.3051 67.7447 21.5571 66.8778 22.0611C66.031 22.5652 65.3455 23.2506 64.8213 24.1176C64.3173 24.9644 64.0653 25.922 64.0653 26.9906V43.9263H55.7184V26.9906C55.7184 25.922 55.4664 24.9644 54.9623 24.1176C54.4583 23.2506 53.7728 22.5652 52.9059 22.0611C52.0591 21.5571 51.1115 21.3051 50.0631 21.3051C49.0349 21.3051 48.0873 21.5672 47.2203 22.0914C46.3735 22.5954 45.6881 23.2809 45.1639 24.1478C44.6598 24.9946 44.4078 25.9422 44.4078 26.9906V43.9263H36.0609ZM98.1587 59.0474H89.8118V13.684H98.1587V16.9502C99.1264 15.7607 100.276 14.7929 101.606 14.0469C102.937 13.2808 104.489 12.8977 106.264 12.8977C108.461 12.8977 110.518 13.311 112.433 14.1376C114.369 14.9643 116.062 16.1135 117.514 17.5853C118.965 19.0369 120.104 20.7204 120.931 22.6357C121.758 24.5511 122.171 26.6075 122.171 28.8051C122.171 31.0027 121.758 33.0693 120.931 35.0048C120.104 36.9403 118.965 38.644 117.514 40.1157C116.062 41.5674 114.369 42.7065 112.433 43.5331C110.518 44.3597 108.461 44.7731 106.264 44.7731C104.489 44.7731 102.937 44.39 101.606 43.6238C100.276 42.8577 99.1264 41.89 98.1587 40.7206V59.0474ZM106.143 20.9119C104.772 20.9119 103.532 21.2748 102.423 22.0006C101.334 22.7063 100.467 23.6539 99.822 24.8434C99.197 26.0329 98.8845 27.3535 98.8845 28.8051C98.8845 30.2568 99.197 31.5874 99.822 32.7971C100.467 33.9866 101.334 34.9342 102.423 35.6399C103.532 36.3455 104.772 36.6984 106.143 36.6984C107.514 36.6984 108.764 36.3455 109.893 35.6399C111.042 34.9342 111.949 33.9866 112.614 32.7971C113.3 31.6076 113.643 30.2769 113.643 28.8051C113.643 27.3737 113.31 26.0632 112.645 24.8736C111.979 23.664 111.072 22.7063 109.923 22.0006C108.794 21.2748 107.534 20.9119 106.143 20.9119ZM140.331 44.7126C137.548 44.7126 135.008 43.9968 132.71 42.5654C130.431 41.1339 128.607 39.2186 127.236 36.8193C125.885 34.4 125.209 31.7286 125.209 28.8051C125.209 26.5874 125.603 24.5208 126.389 22.6055C127.175 20.67 128.254 18.9764 129.625 17.5248C131.016 16.053 132.629 14.9038 134.464 14.0772C136.298 13.2505 138.254 12.8372 140.331 12.8372C143.113 12.8372 145.643 13.553 147.921 14.9844C150.22 16.4159 152.044 18.3413 153.395 20.7607C154.766 23.1801 155.452 25.8616 155.452 28.8051C155.452 31.0027 155.059 33.0592 154.272 34.9746C153.486 36.8899 152.397 38.5835 151.006 40.0553C149.635 41.5069 148.032 42.646 146.198 43.4726C144.383 44.2993 142.427 44.7126 140.331 44.7126ZM140.331 36.3657C141.621 36.3657 142.78 36.023 143.808 35.3375C144.837 34.6318 145.643 33.7044 146.228 32.5552C146.812 31.406 147.105 30.156 147.105 28.8051C147.105 27.414 146.792 26.1438 146.167 24.9946C145.562 23.8253 144.746 22.8978 143.718 22.2123C142.689 21.5268 141.56 21.1841 140.331 21.1841C139.06 21.1841 137.911 21.5369 136.883 22.2426C135.855 22.9482 135.038 23.8757 134.433 25.0249C133.849 26.1741 133.556 27.4342 133.556 28.8051C133.556 30.2366 133.859 31.5269 134.464 32.6762C135.089 33.8052 135.915 34.7024 136.943 35.3677C137.972 36.033 139.101 36.3657 140.331 36.3657ZM175.078 43.9263H166.852L156.751 13.684H164.917L170.995 31.7991L177.013 13.684H185.179L191.197 31.7991L197.246 13.684H205.441L195.31 43.9263H187.114L181.096 25.7809L175.078 43.9263ZM221.902 44.7126C219.12 44.7126 216.579 43.9968 214.281 42.5654C212.003 41.1339 210.178 39.2085 208.807 36.7891C207.456 34.3697 206.781 31.6983 206.781 28.7749C206.781 26.5773 207.174 24.5208 207.96 22.6055C208.747 20.67 209.825 18.9764 211.196 17.5248C212.587 16.053 214.2 14.9038 216.035 14.0772C217.87 13.2505 219.825 12.8372 221.902 12.8372C224.301 12.8372 226.489 13.3514 228.465 14.3796C230.46 15.4078 232.144 16.809 233.515 18.5833C234.906 20.3575 235.894 22.3635 236.479 24.6015C237.084 26.8394 237.184 29.1681 236.781 31.5874H215.793C216.055 32.4745 216.458 33.281 217.003 34.0068C217.567 34.7125 218.253 35.277 219.059 35.7004C219.886 36.1238 220.833 36.3455 221.902 36.3657C222.95 36.3859 223.918 36.1439 224.805 35.6399C225.692 35.1359 226.448 34.4604 227.073 33.6137L235.602 35.5794C234.372 38.2609 232.537 40.4585 230.098 42.1722C227.658 43.8658 224.926 44.7126 221.902 44.7126ZM215.491 25.418H228.344C228.081 24.4099 227.638 23.5027 227.013 22.6962C226.388 21.8897 225.632 21.2547 224.745 20.7909C223.878 20.3272 222.93 20.0954 221.902 20.0954C220.894 20.0954 219.946 20.3272 219.059 20.7909C218.192 21.2547 217.446 21.8897 216.821 22.6962C216.216 23.4825 215.773 24.3898 215.491 25.418ZM241.644 43.9263L241.614 13.684H249.961L249.991 15.9219C250.999 14.9542 252.178 14.1981 253.529 13.6538C254.9 13.1094 256.342 12.8372 257.854 12.8372C258.963 12.8372 260.072 12.9985 261.18 13.3211L257.884 21.7587C257.158 21.4563 256.422 21.3051 255.676 21.3051C254.628 21.3051 253.67 21.5571 252.803 22.0611C251.936 22.5652 251.251 23.2506 250.747 24.1176C250.243 24.9644 249.991 25.922 249.991 26.9906V43.9263H241.644ZM305.896 1.58711H315.755L301.118 24.8434V43.9263H292.771V24.8434L278.134 1.58711H287.993L296.944 15.7707L305.896 1.58711ZM327.573 44.7126C324.79 44.7126 322.25 43.9968 319.952 42.5654C317.673 41.1339 315.849 39.2186 314.478 36.8193C313.127 34.4 312.451 31.7286 312.451 28.8051C312.451 26.5874 312.845 24.5208 313.631 22.6055C314.417 20.67 315.496 18.9764 316.867 17.5248C318.258 16.053 319.871 14.9038 321.706 14.0772C323.54 13.2505 325.496 12.8372 327.573 12.8372C330.355 12.8372 332.885 13.553 335.163 14.9844C337.462 16.4159 339.286 18.3413 340.637 20.7607C342.008 23.1801 342.694 25.8616 342.694 28.8051C342.694 31.0027 342.301 33.0592 341.514 34.9746C340.728 36.8899 339.639 38.5835 338.248 40.0553C336.877 41.5069 335.274 42.646 333.44 43.4726C331.625 44.2993 329.669 44.7126 327.573 44.7126ZM327.573 36.3657C328.863 36.3657 330.022 36.023 331.05 35.3375C332.079 34.6318 332.885 33.7044 333.47 32.5552C334.055 31.406 334.347 30.156 334.347 28.8051C334.347 27.414 334.034 26.1438 333.409 24.9946C332.805 23.8253 331.988 22.8978 330.96 22.2123C329.932 21.5268 328.802 21.1841 327.573 21.1841C326.302 21.1841 325.153 21.5369 324.125 22.2426C323.097 22.9482 322.28 23.8757 321.675 25.0249C321.091 26.1741 320.798 27.4342 320.798 28.8051C320.798 30.2366 321.101 31.5269 321.706 32.6762C322.331 33.8052 323.157 34.7024 324.185 35.3677C325.214 36.033 326.343 36.3657 327.573 36.3657ZM345.307 32.8576V13.684H353.654V30.5592C353.654 31.6278 353.906 32.5955 354.41 33.4624C354.934 34.3092 355.63 34.9846 356.496 35.4887C357.363 35.9927 358.311 36.2447 359.339 36.2447C360.388 36.2447 361.345 35.9927 362.212 35.4887C363.079 34.9846 363.765 34.3092 364.269 33.4624C364.773 32.5955 365.025 31.6278 365.025 30.5592V13.684H373.372L373.402 43.9263H365.055L365.025 41.6279C364.017 42.5956 362.827 43.3517 361.456 43.896C360.105 44.4404 358.674 44.7126 357.162 44.7126C354.984 44.7126 352.998 44.1783 351.204 43.1097C349.41 42.0412 347.978 40.6198 346.91 38.8456C345.841 37.0512 345.307 35.0552 345.307 32.8576ZM379.506 43.9263L379.476 13.684H387.823L387.853 15.9219C388.861 14.9542 390.041 14.1981 391.391 13.6538C392.762 13.1094 394.204 12.8372 395.716 12.8372C396.825 12.8372 397.934 12.9985 399.043 13.3211L395.746 21.7587C395.02 21.4563 394.285 21.3051 393.539 21.3051C392.49 21.3051 391.532 21.5571 390.666 22.0611C389.799 22.5652 389.113 23.2506 388.609 24.1176C388.105 24.9644 387.853 25.922 387.853 26.9906V43.9263H379.506ZM437.407 44.7126C434.544 44.7126 431.853 44.148 429.333 43.019C426.812 41.8698 424.595 40.2871 422.679 38.271C420.784 36.2548 419.292 33.9262 418.203 31.285C417.135 28.6237 416.601 25.7809 416.601 22.7567C416.601 19.7123 417.135 16.8695 418.203 14.2284C419.292 11.5671 420.784 9.2384 422.679 7.24242C424.595 5.22627 426.812 3.65367 429.333 2.52462C431.853 1.37542 434.544 0.800814 437.407 0.800814C440.835 0.800814 443.99 1.59719 446.873 3.18995C449.756 4.76255 452.145 6.86943 454.041 9.51059L446.601 13.5328C445.472 12.2021 444.111 11.1437 442.518 10.3574C440.925 9.55091 439.222 9.14768 437.407 9.14768C435.694 9.14768 434.081 9.5005 432.569 10.2062C431.056 10.9118 429.726 11.8896 428.577 13.1397C427.448 14.3897 426.56 15.8312 425.915 17.4643C425.27 19.0974 424.947 20.8615 424.947 22.7567C424.947 24.6317 425.27 26.3958 425.915 28.0491C426.56 29.6822 427.448 31.1237 428.577 32.3737C429.726 33.6036 431.056 34.5814 432.569 35.3072C434.081 36.0129 435.694 36.3657 437.407 36.3657C439.242 36.3657 440.946 35.9625 442.518 35.156C444.111 34.3496 445.472 33.281 446.601 31.9503L454.041 36.0028C452.145 38.6238 449.756 40.7307 446.873 42.3234C443.99 43.9162 440.835 44.7126 437.407 44.7126ZM459.365 43.9263L459.334 13.684H467.681L467.711 15.9219C468.72 14.9542 469.899 14.1981 471.25 13.6538C472.621 13.1094 474.062 12.8372 475.574 12.8372C476.683 12.8372 477.792 12.9985 478.901 13.3211L475.605 21.7587C474.879 21.4563 474.143 21.3051 473.397 21.3051C472.349 21.3051 471.391 21.5571 470.524 22.0611C469.657 22.5652 468.972 23.2506 468.467 24.1176C467.963 24.9644 467.711 25.922 467.711 26.9906V43.9263H459.365ZM494.082 44.7126C491.3 44.7126 488.76 43.9968 486.461 42.5654C484.183 41.1339 482.358 39.2085 480.987 36.7891C479.636 34.3697 478.961 31.6983 478.961 28.7749C478.961 26.5773 479.354 24.5208 480.141 22.6055C480.927 20.67 482.005 18.9764 483.376 17.5248C484.768 16.053 486.381 14.9038 488.215 14.0772C490.05 13.2505 492.006 12.8372 494.082 12.8372C496.481 12.8372 498.669 13.3514 500.645 14.3796C502.641 15.4078 504.324 16.809 505.695 18.5833C507.086 20.3575 508.074 22.3635 508.659 24.6015C509.264 26.8394 509.365 29.1681 508.961 31.5874H487.973C488.235 32.4745 488.639 33.281 489.183 34.0068C489.747 34.7125 490.433 35.277 491.239 35.7004C492.066 36.1238 493.014 36.3455 494.082 36.3657C495.131 36.3859 496.098 36.1439 496.985 35.6399C497.873 35.1359 498.629 34.4604 499.254 33.6137L507.782 35.5794C506.552 38.2609 504.717 40.4585 502.278 42.1722C499.838 43.8658 497.106 44.7126 494.082 44.7126ZM487.671 25.418H500.524C500.262 24.4099 499.818 23.5027 499.193 22.6962C498.568 21.8897 497.812 21.2547 496.925 20.7909C496.058 20.3272 495.11 20.0954 494.082 20.0954C493.074 20.0954 492.127 20.3272 491.239 20.7909C490.372 21.2547 489.627 21.8897 489.002 22.6962C488.397 23.4825 487.953 24.3898 487.671 25.418ZM536.228 13.684H544.575V43.9263H536.198L535.805 40.7811C535.018 41.9504 534.01 42.898 532.78 43.6238C531.551 44.3497 530.109 44.7126 528.456 44.7126C526.198 44.7126 524.091 44.2892 522.135 43.4424C520.18 42.5956 518.456 41.4262 516.964 39.9343C515.472 38.4423 514.302 36.7185 513.456 34.7629C512.629 32.787 512.216 30.6701 512.216 28.412C512.216 26.2547 512.609 24.2386 513.395 22.3635C514.181 20.4885 515.29 18.8353 516.722 17.4038C518.153 15.9723 519.796 14.8534 521.651 14.0469C523.526 13.2405 525.543 12.8372 527.7 12.8372C529.555 12.8372 531.218 13.2304 532.69 14.0167C534.182 14.803 535.482 15.801 536.591 17.0107L536.228 13.684ZM528.244 36.6984C529.615 36.6984 530.855 36.3455 531.964 35.6399C533.073 34.9342 533.95 33.9866 534.595 32.7971C535.24 31.5874 535.563 30.2568 535.563 28.8051C535.563 27.3334 535.24 26.0027 534.595 24.8132C533.95 23.6236 533.073 22.676 531.964 21.9704C530.855 21.2647 529.615 20.9119 528.244 20.9119C526.853 20.9119 525.593 21.2647 524.464 21.9704C523.335 22.676 522.438 23.6337 521.772 24.8434C521.107 26.0329 520.774 27.3535 520.774 28.8051C520.774 30.2568 521.107 31.5874 521.772 32.7971C522.458 33.9866 523.365 34.9342 524.494 35.6399C525.623 36.3455 526.873 36.6984 528.244 36.6984ZM567.104 22.0309H561.66V43.9263H553.313V22.0309H549.14V13.684H553.313V4.18795H561.66V13.684H567.104V22.0309ZM571.975 13.684H580.322V43.9263H571.975V13.684ZM576.209 10.2062C574.999 10.2062 573.981 9.80293 573.154 8.99647C572.328 8.19001 571.914 7.19201 571.914 6.00248C571.914 4.81295 572.328 3.81496 573.154 3.0085C573.981 2.20204 574.989 1.79881 576.179 1.79881C577.368 1.79881 578.366 2.20204 579.173 3.0085C579.999 3.81496 580.412 4.81295 580.412 6.00248C580.412 7.19201 580.009 8.19001 579.203 8.99647C578.416 9.80293 577.419 10.2062 576.209 10.2062ZM606.436 43.9263H595.64L584.632 13.684H593.523L601.023 34.3395L608.523 13.684H617.445L606.436 43.9263ZM633.894 44.7126C631.111 44.7126 628.571 43.9968 626.273 42.5654C623.994 41.1339 622.17 39.2085 620.799 36.7891C619.448 34.3697 618.772 31.6983 618.772 28.7749C618.772 26.5773 619.166 24.5208 619.952 22.6055C620.738 20.67 621.817 18.9764 623.188 17.5248C624.579 16.053 626.192 14.9038 628.027 14.0772C629.861 13.2505 631.817 12.8372 633.894 12.8372C636.293 12.8372 638.48 13.3514 640.456 14.3796C642.452 15.4078 644.136 16.809 645.507 18.5833C646.898 20.3575 647.886 22.3635 648.47 24.6015C649.075 26.8394 649.176 29.1681 648.773 31.5874H627.785C628.047 32.4745 628.45 33.281 628.994 34.0068C629.559 34.7125 630.244 35.277 631.051 35.7004C631.877 36.1238 632.825 36.3455 633.894 36.3657C634.942 36.3859 635.91 36.1439 636.797 35.6399C637.684 35.1359 638.44 34.4604 639.065 33.6137L647.593 35.5794C646.363 38.2609 644.529 40.4585 642.089 42.1722C639.65 43.8658 636.918 44.7126 633.894 44.7126ZM627.482 25.418H640.335C640.073 24.4099 639.629 23.5027 639.004 22.6962C638.379 21.8897 637.623 21.2547 636.736 20.7909C635.869 20.3272 634.922 20.0954 633.894 20.0954C632.885 20.0954 631.938 20.3272 631.051 20.7909C630.184 21.2547 629.438 21.8897 628.813 22.6962C628.208 23.4825 627.764 24.3898 627.482 25.418ZM9.10091 117.713C7.48799 117.713 5.90531 117.44 4.35288 116.896C2.8206 116.352 1.43954 115.545 0.20969 114.477L5.56257 108.065C5.94564 108.368 6.42951 108.66 7.0142 108.942C7.59888 109.225 8.29445 109.366 9.10091 109.366C10.1291 109.366 11.0566 109.114 11.8832 108.61C12.73 108.085 13.4054 107.4 13.9094 106.553C14.4135 105.686 14.6655 104.749 14.6655 103.741V74.5871H23.0123V103.741C23.0123 106.301 22.3873 108.64 21.1373 110.757C19.8873 112.854 18.2038 114.537 16.0869 115.807C13.9901 117.077 11.6614 117.713 9.10091 117.713ZM43.579 117.713C40.7967 117.713 38.2563 116.997 35.9579 115.565C33.6797 114.134 31.8551 112.219 30.4841 109.819C29.1333 107.4 28.4578 104.729 28.4578 101.805C28.4578 99.5874 28.851 97.5208 29.6373 95.6055C30.4236 93.67 31.5022 91.9764 32.8732 90.5248C34.2644 89.053 35.8773 87.9038 37.712 87.0772C39.5467 86.2505 41.5023 85.8372 43.579 85.8372C46.3613 85.8372 48.8915 86.553 51.1698 87.9844C53.4682 89.4159 55.2928 91.3413 56.6436 93.7607C58.0146 96.1801 58.7001 98.8616 58.7001 101.805C58.7001 104.003 58.3069 106.059 57.5206 107.975C56.7344 109.89 55.6456 111.583 54.2545 113.055C52.8835 114.507 51.2807 115.646 49.446 116.473C47.6314 117.299 45.6758 117.713 43.579 117.713ZM43.579 109.366C44.8693 109.366 46.0286 109.023 47.0568 108.337C48.0851 107.632 48.8915 106.704 49.4762 105.555C50.0609 104.406 50.3532 103.156 50.3532 101.805C50.3532 100.414 50.0407 99.1438 49.4157 97.9946C48.8109 96.8253 47.9943 95.8978 46.9661 95.2123C45.9379 94.5268 44.8088 94.1841 43.579 94.1841C42.3088 94.1841 41.1596 94.5369 40.1314 95.2426C39.1031 95.9482 38.2866 96.8757 37.6817 98.0249C37.097 99.1741 36.8047 100.434 36.8047 101.805C36.8047 103.237 37.1071 104.527 37.712 105.676C38.337 106.805 39.1636 107.702 40.1918 108.368C41.2201 109.033 42.3491 109.366 43.579 109.366ZM61.3132 105.858V86.684H69.6601V103.559C69.6601 104.628 69.9121 105.596 70.4161 106.462C70.9403 107.309 71.6359 107.985 72.5029 108.489C73.3698 108.993 74.3174 109.245 75.3456 109.245C76.394 109.245 77.3517 108.993 78.2186 108.489C79.0856 107.985 79.7711 107.309 80.2751 106.462C80.7791 105.596 81.0312 104.628 81.0312 103.559V86.684H89.378L89.4083 116.926H81.0614L81.0312 114.628C80.0231 115.596 78.8336 116.352 77.4626 116.896C76.1118 117.44 74.6803 117.713 73.1682 117.713C70.9907 117.713 69.0048 117.178 67.2105 116.11C65.4161 115.041 63.9846 113.62 62.9161 111.846C61.8475 110.051 61.3132 108.055 61.3132 105.858ZM95.5125 116.926L95.4822 86.684H103.829L103.859 88.9219C104.867 87.9542 106.047 87.1981 107.398 86.6538C108.769 86.1094 110.21 85.8372 111.722 85.8372C112.831 85.8372 113.94 85.9985 115.049 86.3211L111.753 94.7587C111.027 94.4563 110.291 94.3051 109.545 94.3051C108.496 94.3051 107.539 94.5571 106.672 95.0611C105.805 95.5652 105.119 96.2506 104.615 97.1176C104.111 97.9644 103.859 98.922 103.859 99.9906V116.926H95.5125ZM146.554 97.6922V116.926H138.207V99.9906C138.207 98.922 137.945 97.9644 137.421 97.1176C136.917 96.2506 136.232 95.5652 135.365 95.0611C134.518 94.5571 133.57 94.3051 132.522 94.3051C131.474 94.3051 130.516 94.5571 129.649 95.0611C128.782 95.5652 128.096 96.2506 127.592 97.1176C127.088 97.9644 126.836 98.922 126.836 99.9906V116.926H118.49L118.459 86.684H126.806L126.836 88.9219C127.844 87.9542 129.024 87.1981 130.375 86.6538C131.746 86.1094 133.187 85.8372 134.699 85.8372C136.897 85.8372 138.883 86.3715 140.657 87.4401C142.451 88.5086 143.883 89.9401 144.951 91.7345C146.02 93.5087 146.554 95.4946 146.554 97.6922ZM165.316 117.713C162.534 117.713 159.993 116.997 157.695 115.565C155.417 114.134 153.592 112.208 152.221 109.789C150.87 107.37 150.195 104.698 150.195 101.775C150.195 99.5773 150.588 97.5208 151.374 95.6055C152.16 93.67 153.239 91.9764 154.61 90.5248C156.001 89.053 157.614 87.9038 159.449 87.0772C161.284 86.2505 163.239 85.8372 165.316 85.8372C167.715 85.8372 169.903 86.3514 171.878 87.3796C173.874 88.4078 175.558 89.809 176.929 91.5833C178.32 93.3575 179.308 95.3635 179.893 97.6015C180.497 99.8394 180.598 102.168 180.195 104.587H159.207C159.469 105.475 159.872 106.281 160.417 107.007C160.981 107.712 161.667 108.277 162.473 108.7C163.3 109.124 164.247 109.346 165.316 109.366C166.364 109.386 167.332 109.144 168.219 108.64C169.106 108.136 169.862 107.46 170.487 106.614L179.016 108.579C177.786 111.261 175.951 113.458 173.512 115.172C171.072 116.866 168.34 117.713 165.316 117.713ZM158.904 98.418H171.757C171.495 97.4099 171.052 96.5027 170.427 95.6962C169.802 94.8897 169.046 94.2547 168.159 93.7909C167.292 93.3272 166.344 93.0954 165.316 93.0954C164.308 93.0954 163.36 93.3272 162.473 93.7909C161.606 94.2547 160.86 94.8897 160.235 95.6962C159.63 96.4825 159.187 97.3898 158.904 98.418ZM203.766 86.684H212.657L196.084 132.047H187.253L192.697 116.926L181.81 86.684H190.943L196.87 105.525L203.766 86.684ZM221.69 95.1216C220.52 95.1216 219.522 94.7184 218.696 93.9119C217.889 93.0853 217.486 92.0772 217.486 90.8877C217.486 89.7385 217.889 88.7506 218.696 87.9239C219.522 87.0973 220.52 86.684 221.69 86.684C222.859 86.684 223.857 87.0973 224.684 87.9239C225.51 88.7506 225.924 89.7385 225.924 90.8877C225.924 92.0772 225.51 93.0853 224.684 93.9119C223.857 94.7184 222.859 95.1216 221.69 95.1216ZM221.69 117.713C220.52 117.713 219.522 117.309 218.696 116.503C217.889 115.676 217.486 114.668 217.486 113.479C217.486 112.329 217.889 111.342 218.696 110.515C219.522 109.688 220.52 109.275 221.69 109.275C222.859 109.275 223.857 109.688 224.684 110.515C225.51 111.342 225.924 112.329 225.924 113.479C225.924 114.668 225.51 115.676 224.684 116.503C223.857 117.309 222.859 117.713 221.69 117.713ZM257.678 116.926L246.851 74.5871H255.47L262.365 101.654L269.26 74.5871H276.912L283.807 101.654L290.702 74.5871H299.321L288.555 116.926H279.119L273.101 93.3978L267.113 116.926H257.678ZM332.91 97.6922V116.926H324.564V99.9906C324.564 98.922 324.301 97.9644 323.777 97.1176C323.273 96.2506 322.588 95.5652 321.721 95.0611C320.874 94.5571 319.926 94.3051 318.878 94.3051C317.83 94.3051 316.872 94.5571 316.005 95.0611C315.138 95.5652 314.453 96.2506 313.948 97.1176C313.444 97.9644 313.192 98.922 313.192 99.9906V116.926H304.846L304.815 71.5629H313.162L313.192 88.9219C314.2 87.9542 315.38 87.1981 316.731 86.6538C318.102 86.1094 319.543 85.8372 321.055 85.8372C323.253 85.8372 325.239 86.3715 327.013 87.4401C328.808 88.5086 330.239 89.9401 331.308 91.7345C332.376 93.5087 332.91 95.4946 332.91 97.6922ZM351.672 117.713C348.89 117.713 346.349 116.997 344.051 115.565C341.773 114.134 339.948 112.208 338.577 109.789C337.226 107.37 336.551 104.698 336.551 101.775C336.551 99.5773 336.944 97.5208 337.73 95.6055C338.517 93.67 339.595 91.9764 340.966 90.5248C342.357 89.053 343.97 87.9038 345.805 87.0772C347.64 86.2505 349.595 85.8372 351.672 85.8372C354.071 85.8372 356.259 86.3514 358.234 87.3796C360.23 88.4078 361.914 89.809 363.285 91.5833C364.676 93.3575 365.664 95.3635 366.249 97.6015C366.854 99.8394 366.954 102.168 366.551 104.587H345.563C345.825 105.475 346.228 106.281 346.773 107.007C347.337 107.712 348.023 108.277 348.829 108.7C349.656 109.124 350.603 109.346 351.672 109.366C352.72 109.386 353.688 109.144 354.575 108.64C355.462 108.136 356.218 107.46 356.843 106.614L365.372 108.579C364.142 111.261 362.307 113.458 359.868 115.172C357.428 116.866 354.696 117.713 351.672 117.713ZM345.261 98.418H358.114C357.851 97.4099 357.408 96.5027 356.783 95.6962C356.158 94.8897 355.402 94.2547 354.515 93.7909C353.648 93.3272 352.7 93.0954 351.672 93.0954C350.664 93.0954 349.716 93.3272 348.829 93.7909C347.962 94.2547 347.216 94.8897 346.591 95.6962C345.986 96.4825 345.543 97.3898 345.261 98.418ZM371.414 116.926L371.384 86.684H379.731L379.761 88.9219C380.769 87.9542 381.948 87.1981 383.299 86.6538C384.67 86.1094 386.112 85.8372 387.624 85.8372C388.733 85.8372 389.842 85.9985 390.95 86.3211L387.654 94.7587C386.928 94.4563 386.192 94.3051 385.446 94.3051C384.398 94.3051 383.44 94.5571 382.573 95.0611C381.706 95.5652 381.021 96.2506 380.517 97.1176C380.013 97.9644 379.761 98.922 379.761 99.9906V116.926H371.414ZM406.132 117.713C403.349 117.713 400.809 116.997 398.511 115.565C396.232 114.134 394.408 112.208 393.037 109.789C391.686 107.37 391.01 104.698 391.01 101.775C391.01 99.5773 391.404 97.5208 392.19 95.6055C392.976 93.67 394.055 91.9764 395.426 90.5248C396.817 89.053 398.43 87.9038 400.265 87.0772C402.099 86.2505 404.055 85.8372 406.132 85.8372C408.531 85.8372 410.718 86.3514 412.694 87.3796C414.69 88.4078 416.374 89.809 417.745 91.5833C419.136 93.3575 420.124 95.3635 420.708 97.6015C421.313 99.8394 421.414 102.168 421.011 104.587H400.023C400.285 105.475 400.688 106.281 401.232 107.007C401.797 107.712 402.482 108.277 403.289 108.7C404.115 109.124 405.063 109.346 406.132 109.366C407.18 109.386 408.148 109.144 409.035 108.64C409.922 108.136 410.678 107.46 411.303 106.614L419.831 108.579C418.602 111.261 416.767 113.458 414.327 115.172C411.888 116.866 409.156 117.713 406.132 117.713ZM399.72 98.418H412.573C412.311 97.4099 411.868 96.5027 411.243 95.6962C410.618 94.8897 409.861 94.2547 408.974 93.7909C408.107 93.3272 407.16 93.0954 406.132 93.0954C405.124 93.0954 404.176 93.3272 403.289 93.7909C402.422 94.2547 401.676 94.8897 401.051 95.6962C400.446 96.4825 400.003 97.3898 399.72 98.418ZM228.914 189.926V147.587H244.671C246.949 147.587 249.015 148.061 250.87 149.009C252.725 149.936 254.187 151.267 255.255 153C256.344 154.734 256.888 156.771 256.888 159.109C256.888 160.057 256.757 161.035 256.495 162.043C256.253 163.051 255.83 163.978 255.225 164.825C254.64 165.672 253.834 166.317 252.806 166.761C254.136 167.083 255.205 167.688 256.011 168.575C256.818 169.442 257.433 170.45 257.856 171.599C258.28 172.729 258.562 173.888 258.703 175.077C258.844 176.267 258.915 177.345 258.915 178.313C258.915 180.491 258.35 182.456 257.221 184.21C256.092 185.965 254.57 187.356 252.655 188.384C250.759 189.412 248.663 189.926 246.364 189.926H228.914ZM237.261 182.819H245.487C246.596 182.819 247.604 182.557 248.511 182.033C249.419 181.489 250.144 180.753 250.689 179.825C251.233 178.878 251.505 177.809 251.505 176.62C251.505 175.612 251.233 174.654 250.689 173.747C250.144 172.839 249.419 172.104 248.511 171.539C247.604 170.954 246.596 170.662 245.487 170.662H237.261V182.819ZM237.261 163.706H243.703C245.033 163.706 246.173 163.273 247.12 162.406C248.068 161.539 248.542 160.42 248.542 159.049C248.542 157.638 248.068 156.569 247.12 155.843C246.173 155.097 245.033 154.724 243.703 154.724H237.261V163.706ZM276.539 190.713C273.757 190.713 271.216 189.997 268.918 188.565C266.64 187.134 264.815 185.208 263.444 182.789C262.093 180.37 261.418 177.698 261.418 174.775C261.418 172.577 261.811 170.521 262.597 168.605C263.383 166.67 264.462 164.976 265.833 163.525C267.224 162.053 268.837 160.904 270.672 160.077C272.507 159.251 274.462 158.837 276.539 158.837C278.938 158.837 281.126 159.351 283.101 160.38C285.097 161.408 286.781 162.809 288.152 164.583C289.543 166.357 290.531 168.364 291.116 170.601C291.72 172.839 291.821 175.168 291.418 177.587H270.43C270.692 178.475 271.095 179.281 271.64 180.007C272.204 180.712 272.89 181.277 273.696 181.7C274.523 182.124 275.47 182.346 276.539 182.366C277.587 182.386 278.555 182.144 279.442 181.64C280.329 181.136 281.085 180.46 281.71 179.614L290.239 181.579C289.009 184.261 287.174 186.458 284.734 188.172C282.295 189.866 279.563 190.713 276.539 190.713ZM270.127 171.418H282.98C282.718 170.41 282.275 169.503 281.65 168.696C281.025 167.89 280.269 167.255 279.382 166.791C278.515 166.327 277.567 166.095 276.539 166.095C275.531 166.095 274.583 166.327 273.696 166.791C272.829 167.255 272.083 167.89 271.458 168.696C270.853 169.483 270.41 170.39 270.127 171.418ZM314.39 180.37L321.89 184.422C320.499 186.317 318.755 187.84 316.658 188.989C314.562 190.138 312.273 190.713 309.793 190.713C307.011 190.713 304.471 189.997 302.172 188.565C299.894 187.134 298.07 185.219 296.699 182.819C295.348 180.4 294.672 177.729 294.672 174.805C294.672 172.587 295.066 170.521 295.852 168.605C296.638 166.67 297.717 164.976 299.088 163.525C300.479 162.053 302.092 160.904 303.926 160.077C305.761 159.251 307.717 158.837 309.793 158.837C312.273 158.837 314.562 159.412 316.658 160.561C318.755 161.71 320.499 163.253 321.89 165.188L314.39 169.241C313.765 168.575 313.05 168.071 312.243 167.728C311.457 167.366 310.64 167.184 309.793 167.184C308.503 167.184 307.344 167.537 306.316 168.243C305.308 168.948 304.501 169.886 303.896 171.055C303.312 172.204 303.019 173.454 303.019 174.805C303.019 176.136 303.322 177.376 303.926 178.525C304.531 179.674 305.338 180.602 306.346 181.307C307.374 182.013 308.523 182.366 309.793 182.366C310.66 182.366 311.487 182.184 312.273 181.821C313.06 181.458 313.765 180.975 314.39 180.37ZM339.504 190.713C336.722 190.713 334.182 189.997 331.883 188.565C329.605 187.134 327.78 185.219 326.409 182.819C325.058 180.4 324.383 177.729 324.383 174.805C324.383 172.587 324.776 170.521 325.562 168.605C326.349 166.67 327.427 164.976 328.798 163.525C330.19 162.053 331.802 160.904 333.637 160.077C335.472 159.251 337.428 158.837 339.504 158.837C342.286 158.837 344.817 159.553 347.095 160.984C349.393 162.416 351.218 164.341 352.569 166.761C353.94 169.18 354.625 171.862 354.625 174.805C354.625 177.003 354.232 179.059 353.446 180.975C352.66 182.89 351.571 184.583 350.18 186.055C348.809 187.507 347.206 188.646 345.371 189.473C343.557 190.299 341.601 190.713 339.504 190.713ZM339.504 182.366C340.794 182.366 341.954 182.023 342.982 181.337C344.01 180.632 344.817 179.704 345.401 178.555C345.986 177.406 346.278 176.156 346.278 174.805C346.278 173.414 345.966 172.144 345.341 170.995C344.736 169.825 343.92 168.898 342.891 168.212C341.863 167.527 340.734 167.184 339.504 167.184C338.234 167.184 337.085 167.537 336.057 168.243C335.028 168.948 334.212 169.876 333.607 171.025C333.022 172.174 332.73 173.434 332.73 174.805C332.73 176.237 333.032 177.527 333.637 178.676C334.262 179.805 335.089 180.702 336.117 181.368C337.145 182.033 338.274 182.366 339.504 182.366ZM359.216 189.926V159.684H367.563V161.922C368.591 160.954 369.781 160.198 371.131 159.654C372.482 159.109 373.914 158.837 375.426 158.837C377.482 158.837 379.367 159.311 381.081 160.259C382.815 161.206 384.206 162.466 385.255 164.039C386.323 162.466 387.714 161.206 389.428 160.259C391.142 159.311 393.017 158.837 395.053 158.837C397.251 158.837 399.237 159.372 401.011 160.44C402.805 161.509 404.237 162.94 405.305 164.734C406.374 166.509 406.908 168.495 406.908 170.692V189.926H398.561V172.991C398.561 171.942 398.299 170.995 397.775 170.148C397.271 169.281 396.595 168.595 395.749 168.091C394.902 167.567 393.954 167.305 392.906 167.305C391.857 167.305 390.9 167.557 390.033 168.061C389.186 168.565 388.501 169.251 387.976 170.118C387.472 170.964 387.22 171.922 387.22 172.991V189.926H378.873V172.991C378.873 171.922 378.621 170.964 378.117 170.118C377.613 169.251 376.928 168.565 376.061 168.061C375.214 167.557 374.267 167.305 373.218 167.305C372.19 167.305 371.242 167.567 370.375 168.091C369.529 168.595 368.843 169.281 368.319 170.148C367.815 170.995 367.563 171.942 367.563 172.991V189.926H359.216ZM425.683 190.713C422.9 190.713 420.36 189.997 418.062 188.565C415.783 187.134 413.959 185.208 412.588 182.789C411.237 180.37 410.562 177.698 410.562 174.775C410.562 172.577 410.955 170.521 411.741 168.605C412.527 166.67 413.606 164.976 414.977 163.525C416.368 162.053 417.981 160.904 419.816 160.077C421.65 159.251 423.606 158.837 425.683 158.837C428.082 158.837 430.269 159.351 432.245 160.38C434.241 161.408 435.925 162.809 437.296 164.583C438.687 166.357 439.675 168.364 440.259 170.601C440.864 172.839 440.965 175.168 440.562 177.587H419.574C419.836 178.475 420.239 179.281 420.783 180.007C421.348 180.712 422.034 181.277 422.84 181.7C423.667 182.124 424.614 182.346 425.683 182.366C426.731 182.386 427.699 182.144 428.586 181.64C429.473 181.136 430.229 180.46 430.854 179.614L439.382 181.579C438.153 184.261 436.318 186.458 433.878 188.172C431.439 189.866 428.707 190.713 425.683 190.713ZM419.271 171.418H432.124C431.862 170.41 431.419 169.503 430.794 168.696C430.169 167.89 429.413 167.255 428.526 166.791C427.659 166.327 426.711 166.095 425.683 166.095C424.675 166.095 423.727 166.327 422.84 166.791C421.973 167.255 421.227 167.89 420.602 168.696C419.997 169.483 419.554 170.39 419.271 171.418ZM460.752 189.926V147.587H477.567C479.865 147.587 481.942 148.172 483.797 149.341C485.672 150.49 487.153 152.043 488.242 153.998C489.351 155.934 489.905 158.081 489.905 160.44C489.905 162.295 489.583 164.019 488.938 165.611C488.293 167.184 487.385 168.565 486.216 169.755C485.047 170.944 483.686 171.872 482.133 172.537L492.204 189.926H482.587L472.94 173.293H469.099V189.926H460.752ZM469.099 164.946H476.569C477.476 164.946 478.303 164.724 479.048 164.281C479.815 163.817 480.419 163.202 480.863 162.436C481.327 161.65 481.559 160.783 481.559 159.835C481.559 158.908 481.327 158.061 480.863 157.295C480.419 156.509 479.815 155.884 479.048 155.42C478.303 154.956 477.476 154.724 476.569 154.724H469.099V164.946ZM508.613 190.713C505.83 190.713 503.29 189.997 500.992 188.565C498.713 187.134 496.889 185.208 495.518 182.789C494.167 180.37 493.492 177.698 493.492 174.775C493.492 172.577 493.885 170.521 494.671 168.605C495.457 166.67 496.536 164.976 497.907 163.525C499.298 162.053 500.911 160.904 502.746 160.077C504.58 159.251 506.536 158.837 508.613 158.837C511.012 158.837 513.199 159.351 515.175 160.38C517.171 161.408 518.855 162.809 520.226 164.583C521.617 166.357 522.605 168.364 523.189 170.601C523.794 172.839 523.895 175.168 523.492 177.587H502.504C502.766 178.475 503.169 179.281 503.713 180.007C504.278 180.712 504.963 181.277 505.77 181.7C506.597 182.124 507.544 182.346 508.613 182.366C509.661 182.386 510.629 182.144 511.516 181.64C512.403 181.136 513.159 180.46 513.784 179.614L522.312 181.579C521.083 184.261 519.248 186.458 516.808 188.172C514.369 189.866 511.637 190.713 508.613 190.713ZM502.201 171.418H515.054C514.792 170.41 514.349 169.503 513.724 168.696C513.099 167.89 512.343 167.255 511.455 166.791C510.588 166.327 509.641 166.095 508.613 166.095C507.605 166.095 506.657 166.327 505.77 166.791C504.903 167.255 504.157 167.89 503.532 168.696C502.927 169.483 502.484 170.39 502.201 171.418ZM550.759 159.684H559.105V189.926H550.728L550.335 186.781C549.549 187.95 548.541 188.898 547.311 189.624C546.081 190.35 544.64 190.713 542.986 190.713C540.728 190.713 538.621 190.289 536.666 189.442C534.71 188.596 532.986 187.426 531.494 185.934C530.002 184.442 528.833 182.719 527.986 180.763C527.16 178.787 526.746 176.67 526.746 174.412C526.746 172.255 527.139 170.239 527.926 168.364C528.712 166.489 529.821 164.835 531.252 163.404C532.684 161.972 534.327 160.853 536.182 160.047C538.057 159.24 540.073 158.837 542.23 158.837C544.085 158.837 545.748 159.23 547.22 160.017C548.712 160.803 550.013 161.801 551.121 163.011L550.759 159.684ZM542.775 182.698C544.146 182.698 545.386 182.346 546.494 181.64C547.603 180.934 548.48 179.987 549.126 178.797C549.771 177.587 550.093 176.257 550.093 174.805C550.093 173.333 549.771 172.003 549.126 170.813C548.48 169.624 547.603 168.676 546.494 167.97C545.386 167.265 544.146 166.912 542.775 166.912C541.383 166.912 540.123 167.265 538.994 167.97C537.865 168.676 536.968 169.634 536.303 170.843C535.637 172.033 535.305 173.354 535.305 174.805C535.305 176.257 535.637 177.587 536.303 178.797C536.988 179.987 537.896 180.934 539.025 181.64C540.154 182.346 541.404 182.698 542.775 182.698ZM565.241 189.926V144.563H573.588V189.926H565.241ZM580.835 159.684H589.182V189.926H580.835V159.684ZM585.069 156.206C583.859 156.206 582.841 155.803 582.014 154.996C581.188 154.19 580.774 153.192 580.774 152.002C580.774 150.813 581.188 149.815 582.014 149.009C582.841 148.202 583.849 147.799 585.039 147.799C586.228 147.799 587.226 148.202 588.033 149.009C588.859 149.815 589.273 150.813 589.273 152.002C589.273 153.192 588.869 154.19 588.063 154.996C587.277 155.803 586.279 156.206 585.069 156.206ZM612.88 168.031H607.437V189.926H599.09V168.031H594.917V159.684H599.09V150.188H607.437V159.684H612.88V168.031ZM637.73 159.684H646.621L630.049 205.047H621.218L626.661 189.926L615.774 159.684H624.907L630.835 178.525L637.73 159.684Z" fill="black"/>
<path d="M441.201 116.926V74.5871H455.233C458.157 74.5871 460.888 75.1416 463.429 76.2504C465.989 77.3392 468.237 78.8614 470.173 80.817C472.129 82.7525 473.651 85.0005 474.739 87.561C475.848 90.1014 476.403 92.8333 476.403 95.7567C476.403 98.6801 475.848 101.422 474.739 103.983C473.651 106.523 472.129 108.771 470.173 110.727C468.237 112.662 465.989 114.184 463.429 115.293C460.888 116.382 458.157 116.926 455.233 116.926H441.201ZM449.548 108.579H455.233C456.967 108.579 458.6 108.247 460.132 107.581C461.685 106.916 463.056 105.999 464.245 104.829C465.435 103.66 466.362 102.299 467.028 100.747C467.713 99.1942 468.056 97.5309 468.056 95.7567C468.056 93.9825 467.713 92.3292 467.028 90.797C466.362 89.2445 465.435 87.8836 464.245 86.7143C463.076 85.5247 461.715 84.5973 460.163 83.932C458.63 83.2666 456.987 82.934 455.233 82.934H449.548V108.579ZM494.023 117.713C491.241 117.713 488.701 116.997 486.402 115.565C484.124 114.134 482.299 112.208 480.928 109.789C479.577 107.37 478.902 104.698 478.902 101.775C478.902 99.5773 479.295 97.5208 480.081 95.6055C480.868 93.67 481.946 91.9764 483.317 90.5248C484.709 89.053 486.321 87.9038 488.156 87.0772C489.991 86.2505 491.947 85.8372 494.023 85.8372C496.422 85.8372 498.61 86.3514 500.586 87.3796C502.582 88.4078 504.265 89.809 505.636 91.5833C507.027 93.3575 508.015 95.3635 508.6 97.6015C509.205 99.8394 509.306 102.168 508.902 104.587H487.914C488.176 105.475 488.58 106.281 489.124 107.007C489.688 107.712 490.374 108.277 491.18 108.7C492.007 109.124 492.955 109.346 494.023 109.366C495.072 109.386 496.039 109.144 496.926 108.64C497.814 108.136 498.57 107.46 499.195 106.614L507.723 108.579C506.493 111.261 504.658 113.458 502.219 115.172C499.779 116.866 497.047 117.713 494.023 117.713ZM487.612 98.418H500.465C500.203 97.4099 499.759 96.5027 499.134 95.6962C498.509 94.8897 497.753 94.2547 496.866 93.7909C495.999 93.3272 495.051 93.0954 494.023 93.0954C493.015 93.0954 492.067 93.3272 491.18 93.7909C490.313 94.2547 489.567 94.8897 488.942 95.6962C488.338 96.4825 487.894 97.3898 487.612 98.418ZM522.772 117.471C521.219 117.35 519.727 117.027 518.296 116.503C516.864 115.959 515.584 115.233 514.455 114.325C513.346 113.398 512.479 112.289 511.854 110.999L518.87 107.975C519.092 108.297 519.425 108.65 519.868 109.033C520.312 109.396 520.846 109.719 521.471 110.001C522.116 110.283 522.862 110.424 523.709 110.424C524.334 110.424 524.939 110.354 525.524 110.212C526.108 110.051 526.582 109.799 526.945 109.456C527.308 109.094 527.49 108.62 527.49 108.035C527.49 107.39 527.258 106.896 526.794 106.553C526.33 106.21 525.766 105.958 525.1 105.797C524.455 105.616 523.83 105.464 523.225 105.343C521.371 105.021 519.616 104.446 517.963 103.62C516.33 102.773 514.999 101.684 513.971 100.354C512.943 99.0229 512.429 97.4301 512.429 95.5752C512.429 93.5389 512.963 91.7849 514.032 90.3131C515.1 88.8211 516.491 87.6719 518.205 86.8655C519.919 86.059 521.774 85.6558 523.77 85.6558C526.129 85.6558 528.316 86.1497 530.332 87.1376C532.348 88.1256 533.971 89.5167 535.201 91.3111L528.608 95.2123C528.346 94.8293 528.004 94.4664 527.58 94.1236C527.177 93.7607 526.703 93.4583 526.159 93.2163C525.635 92.9542 525.07 92.803 524.465 92.7627C523.679 92.7022 522.963 92.7526 522.318 92.9139C521.673 93.0551 521.159 93.3272 520.776 93.7305C520.413 94.1337 520.231 94.6781 520.231 95.3635C520.231 96.0289 520.524 96.5228 521.108 96.8454C521.693 97.1478 522.368 97.3797 523.135 97.541C523.901 97.6821 524.576 97.8535 525.161 98.0551C526.915 98.6196 528.558 99.3454 530.09 100.233C531.643 101.099 532.893 102.168 533.84 103.438C534.788 104.708 535.232 106.2 535.171 107.914C535.171 109.91 534.576 111.664 533.387 113.176C532.197 114.668 530.655 115.807 528.76 116.594C526.885 117.36 524.889 117.652 522.772 117.471ZM539.488 86.684H547.835V116.926H539.488V86.684ZM543.722 83.2062C542.512 83.2062 541.494 82.8029 540.668 81.9965C539.841 81.19 539.428 80.192 539.428 79.0025C539.428 77.813 539.841 76.815 540.668 76.0085C541.494 75.202 542.502 74.7988 543.692 74.7988C544.881 74.7988 545.879 75.202 546.686 76.0085C547.512 76.815 547.926 77.813 547.926 79.0025C547.926 80.192 547.522 81.19 546.716 81.9965C545.93 82.8029 544.932 83.2062 543.722 83.2062ZM576.211 86.684H584.558V117.35C584.558 119.588 584.104 121.604 583.197 123.398C582.289 125.213 581.05 126.765 579.477 128.055C577.924 129.346 576.13 130.334 574.094 131.019C572.078 131.705 569.941 132.047 567.682 132.047C565.545 132.047 563.499 131.624 561.543 130.777C559.588 129.951 557.854 128.801 556.342 127.33C554.829 125.858 553.65 124.164 552.803 122.249L560.424 118.771C560.848 119.779 561.422 120.646 562.148 121.372C562.894 122.098 563.741 122.652 564.688 123.035C565.656 123.438 566.654 123.64 567.682 123.64C568.791 123.64 569.85 123.509 570.858 123.247C571.886 122.985 572.803 122.592 573.61 122.067C574.416 121.543 575.051 120.888 575.515 120.102C575.979 119.315 576.211 118.398 576.211 117.35V113.842C575.283 114.991 574.154 115.928 572.824 116.654C571.513 117.36 569.991 117.713 568.257 117.713C566.08 117.713 564.033 117.299 562.118 116.473C560.223 115.646 558.549 114.507 557.098 113.055C555.646 111.583 554.507 109.89 553.68 107.975C552.854 106.059 552.44 104.003 552.44 101.805C552.44 99.6075 552.854 97.5511 553.68 95.6357C554.507 93.7204 555.646 92.0369 557.098 90.5853C558.549 89.1135 560.223 87.9643 562.118 87.1376C564.033 86.311 566.08 85.8977 568.257 85.8977C569.991 85.8977 571.513 86.2606 572.824 86.9864C574.154 87.6921 575.283 88.6195 576.211 89.7687V86.684ZM568.378 109.698C569.749 109.698 570.989 109.346 572.098 108.64C573.207 107.914 574.074 106.956 574.699 105.767C575.344 104.577 575.666 103.257 575.666 101.805C575.666 100.354 575.344 99.0329 574.699 97.8434C574.074 96.6337 573.207 95.676 572.098 94.9704C570.989 94.2647 569.749 93.9119 568.378 93.9119C567.027 93.9119 565.787 94.2647 564.658 94.9704C563.549 95.676 562.662 96.6337 561.997 97.8434C561.332 99.0329 560.999 100.354 560.999 101.805C560.999 103.257 561.332 104.587 561.997 105.797C562.662 106.987 563.549 107.934 564.658 108.64C565.787 109.346 567.027 109.698 568.378 109.698ZM619.916 97.6922V116.926H611.57V99.9906C611.57 98.922 611.307 97.9644 610.783 97.1176C610.279 96.2506 609.594 95.5652 608.727 95.0611C607.88 94.5571 606.932 94.3051 605.884 94.3051C604.836 94.3051 603.878 94.5571 603.011 95.0611C602.144 95.5652 601.459 96.2506 600.955 97.1176C600.451 97.9644 600.198 98.922 600.198 99.9906V116.926H591.852L591.821 86.684H600.168L600.198 88.9219C601.207 87.9542 602.386 87.1981 603.737 86.6538C605.108 86.1094 606.549 85.8372 608.061 85.8372C610.259 85.8372 612.245 86.3715 614.019 87.4401C615.814 88.5086 617.245 89.9401 618.314 91.7345C619.382 93.5087 619.916 95.4946 619.916 97.6922ZM2.62907 189.926V147.587H16.6615C19.5849 147.587 22.3168 148.142 24.8571 149.25C27.4176 150.339 29.6656 151.861 31.6012 153.817C33.5568 155.753 35.079 158.001 36.1677 160.561C37.2766 163.101 37.8311 165.833 37.8311 168.757C37.8311 171.68 37.2766 174.422 36.1677 176.983C35.079 179.523 33.5568 181.771 31.6012 183.727C29.6656 185.662 27.4176 187.184 24.8571 188.293C22.3168 189.382 19.5849 189.926 16.6615 189.926H2.62907ZM10.9759 181.579H16.6615C18.3954 181.579 20.0284 181.247 21.5607 180.581C23.1132 179.916 24.4841 178.999 25.6737 177.829C26.8632 176.66 27.7906 175.299 28.456 173.747C29.1414 172.194 29.4842 170.531 29.4842 168.757C29.4842 166.982 29.1414 165.329 28.456 163.797C27.7906 162.245 26.8632 160.884 25.6737 159.714C24.5043 158.525 23.1434 157.597 21.591 156.932C20.0587 156.267 18.4155 155.934 16.6615 155.934H10.9759V181.579ZM43.002 189.926L42.9718 159.684H51.3186L51.3489 161.922C52.3569 160.954 53.5364 160.198 54.8872 159.654C56.2582 159.109 57.6997 158.837 59.2119 158.837C60.3207 158.837 61.4296 158.999 62.5385 159.321L59.2421 167.759C58.5163 167.456 57.7804 167.305 57.0344 167.305C55.986 167.305 55.0283 167.557 54.1614 168.061C53.2945 168.565 52.609 169.251 52.1049 170.118C51.6009 170.964 51.3489 171.922 51.3489 172.991V189.926H43.002ZM77.7196 190.713C74.9374 190.713 72.397 189.997 70.0986 188.565C67.8203 187.134 65.9957 185.208 64.6247 182.789C63.2739 180.37 62.5985 177.698 62.5985 174.775C62.5985 172.577 62.9917 170.521 63.778 168.605C64.5643 166.67 65.6429 164.976 67.0139 163.525C68.405 162.053 70.0179 160.904 71.8526 160.077C73.6873 159.251 75.643 158.837 77.7196 158.837C80.1189 158.837 82.3064 159.351 84.2822 160.38C86.2782 161.408 87.9617 162.809 89.3327 164.583C90.7238 166.357 91.7117 168.364 92.2964 170.601C92.9013 172.839 93.0021 175.168 92.5988 177.587H71.6107C71.8728 178.475 72.276 179.281 72.8204 180.007C73.3849 180.712 74.0704 181.277 74.8769 181.7C75.7035 182.124 76.6511 182.346 77.7196 182.366C78.768 182.386 79.7358 182.144 80.6229 181.64C81.51 181.136 82.2661 180.46 82.8911 179.614L91.4194 181.579C90.1895 184.261 88.3548 186.458 85.9153 188.172C83.4757 189.866 80.7439 190.713 77.7196 190.713ZM71.3083 171.418H84.1612C83.8991 170.41 83.4556 169.503 82.8306 168.696C82.2056 167.89 81.4495 167.255 80.5624 166.791C79.6955 166.327 78.7479 166.095 77.7196 166.095C76.7116 166.095 75.764 166.327 74.8769 166.791C74.0099 167.255 73.2639 167.89 72.6389 168.696C72.0341 169.483 71.5905 170.39 71.3083 171.418ZM119.866 159.684H128.212V189.926H119.835L119.442 186.781C118.656 187.95 117.648 188.898 116.418 189.624C115.188 190.35 113.747 190.713 112.093 190.713C109.835 190.713 107.728 190.289 105.773 189.442C103.817 188.596 102.093 187.426 100.601 185.934C99.1093 184.442 97.9399 182.719 97.0931 180.763C96.2665 178.787 95.8532 176.67 95.8532 174.412C95.8532 172.255 96.2463 170.239 97.0326 168.364C97.8189 166.489 98.9278 164.835 100.359 163.404C101.791 161.972 103.434 160.853 105.289 160.047C107.164 159.24 109.18 158.837 111.337 158.837C113.192 158.837 114.855 159.23 116.327 160.017C117.819 160.803 119.12 161.801 120.228 163.011L119.866 159.684ZM111.882 182.698C113.253 182.698 114.492 182.346 115.601 181.64C116.71 180.934 117.587 179.987 118.232 178.797C118.878 177.587 119.2 176.257 119.2 174.805C119.2 173.333 118.878 172.003 118.232 170.813C117.587 169.624 116.71 168.676 115.601 167.97C114.492 167.265 113.253 166.912 111.882 166.912C110.49 166.912 109.23 167.265 108.101 167.97C106.972 168.676 106.075 169.634 105.41 170.843C104.744 172.033 104.412 173.354 104.412 174.805C104.412 176.257 104.744 177.587 105.41 178.797C106.095 179.987 107.002 180.934 108.132 181.64C109.261 182.346 110.511 182.698 111.882 182.698ZM134.289 189.926V159.684H142.636V161.922C143.664 160.954 144.854 160.198 146.205 159.654C147.555 159.109 148.987 158.837 150.499 158.837C152.556 158.837 154.441 159.311 156.154 160.259C157.888 161.206 159.279 162.466 160.328 164.039C161.396 162.466 162.787 161.206 164.501 160.259C166.215 159.311 168.09 158.837 170.126 158.837C172.324 158.837 174.31 159.372 176.084 160.44C177.878 161.509 179.31 162.94 180.378 164.734C181.447 166.509 181.981 168.495 181.981 170.692V189.926H173.634V172.991C173.634 171.942 173.372 170.995 172.848 170.148C172.344 169.281 171.669 168.595 170.822 168.091C169.975 167.567 169.027 167.305 167.979 167.305C166.931 167.305 165.973 167.557 165.106 168.061C164.259 168.565 163.574 169.251 163.05 170.118C162.546 170.964 162.294 171.922 162.294 172.991V189.926H153.947V172.991C153.947 171.922 153.695 170.964 153.191 170.118C152.687 169.251 152.001 168.565 151.134 168.061C150.287 167.557 149.34 167.305 148.291 167.305C147.263 167.305 146.316 167.567 145.449 168.091C144.602 168.595 143.916 169.281 143.392 170.148C142.888 170.995 142.636 171.942 142.636 172.991V189.926H134.289ZM196.841 190.471C195.288 190.35 193.796 190.027 192.365 189.503C190.933 188.959 189.653 188.233 188.524 187.325C187.415 186.398 186.548 185.289 185.923 183.999L192.939 180.975C193.161 181.297 193.494 181.65 193.937 182.033C194.381 182.396 194.915 182.719 195.54 183.001C196.185 183.283 196.931 183.424 197.778 183.424C198.403 183.424 199.008 183.354 199.593 183.212C200.177 183.051 200.651 182.799 201.014 182.456C201.377 182.094 201.558 181.62 201.558 181.035C201.558 180.39 201.326 179.896 200.863 179.553C200.399 179.21 199.835 178.958 199.169 178.797C198.524 178.616 197.899 178.464 197.294 178.343C195.439 178.021 193.685 177.446 192.032 176.62C190.399 175.773 189.068 174.684 188.04 173.354C187.012 172.023 186.498 170.43 186.498 168.575C186.498 166.539 187.032 164.785 188.101 163.313C189.169 161.821 190.56 160.672 192.274 159.865C193.988 159.059 195.843 158.656 197.839 158.656C200.197 158.656 202.385 159.15 204.401 160.138C206.417 161.126 208.04 162.517 209.27 164.311L202.677 168.212C202.415 167.829 202.072 167.466 201.649 167.124C201.246 166.761 200.772 166.458 200.228 166.216C199.703 165.954 199.139 165.803 198.534 165.763C197.748 165.702 197.032 165.753 196.387 165.914C195.742 166.055 195.228 166.327 194.845 166.73C194.482 167.134 194.3 167.678 194.3 168.364C194.3 169.029 194.593 169.523 195.177 169.845C195.762 170.148 196.437 170.38 197.203 170.541C197.97 170.682 198.645 170.853 199.23 171.055C200.984 171.62 202.627 172.345 204.159 173.233C205.712 174.099 206.962 175.168 207.909 176.438C208.857 177.708 209.3 179.2 209.24 180.914C209.24 182.91 208.645 184.664 207.456 186.176C206.266 187.668 204.724 188.807 202.829 189.594C200.954 190.36 198.958 190.652 196.841 190.471Z" fill="white"/>
</svg>
