<svg width="315" height="151" viewBox="0 0 315 151" fill="none" xmlns="http://www.w3.org/2000/svg">
<g clip-path="url(#clip0_992_2802)">
<path d="M145.028 131.05C177.899 127.391 214.337 121.259 249.639 109.492C260.598 105.837 271.386 101.687 281.232 95.5589C285.671 92.8013 289.979 89.6556 293.753 86.062C296.509 83.4372 298.797 80.0388 300.409 76.5725C304.245 68.2752 302.254 60.2218 294.803 54.9366C290.422 51.8406 285.47 49.3384 280.455 47.3851C265.841 41.7107 250.615 38.3276 235.144 35.9729C222.33 34.0224 209.442 33.948 196.542 34.2743C195.027 34.3124 193.387 34.5534 192.017 34.0673C190.928 33.6843 189.387 32.3345 189.438 31.4671C189.49 30.2481 190.586 28.7289 191.673 28.0095C192.684 27.3289 194.277 27.4595 195.624 27.3245C216.474 25.2723 236.998 27.6593 257.21 32.6627C267.062 35.099 276.799 38.2165 286.317 41.753C291.324 43.6111 296.135 46.5093 300.359 49.811C309.285 56.7715 311.871 67.0413 308.115 77.6965C306.162 83.2544 302.834 87.9113 298.607 91.9765C291.154 99.1395 282.29 104.078 272.981 108.337C254.994 116.56 236.106 122.002 216.909 126.481C194.079 131.808 170.977 135.69 147.653 138.136C119.72 141.055 91.7794 142.088 63.8544 138.055C52.7172 136.451 41.903 133.621 31.7077 128.754C25.0669 125.586 18.9076 121.721 13.9718 116.149C5.98318 107.14 4.3635 96.9606 8.70008 85.8227C11.1352 79.567 15.0757 74.2487 19.596 69.3426C31.508 56.3999 46.0774 47.1213 61.6808 39.413C82.0461 29.35 103.623 22.871 125.774 18.179C154.155 12.1848 182.909 10.0566 211.86 10.6915C236.856 11.2448 261.662 13.6206 285.849 20.3816C288.946 21.2423 291.972 22.3967 294.995 23.5036C297.109 24.2753 298.555 25.6335 297.896 28.1207C297.405 29.9699 295.486 30.6829 292.766 29.7411C277.428 24.3704 261.43 22.382 245.424 20.4742C226.671 18.234 207.875 17.8514 189.01 18.3217C155.508 19.176 122.835 24.703 91.0681 35.4071C73.9504 41.172 57.6815 48.7634 42.8068 59.1077C35.1132 64.4544 27.957 70.4566 22.1579 77.8888C19.9762 80.6865 17.9727 83.6921 16.4314 86.8646C11.6179 96.7663 13.2602 105.937 21.5792 113.079C25.7804 116.671 30.6359 119.709 35.585 122.179C46.6376 127.705 58.6709 130.044 70.8607 131.443C94.2389 134.121 117.63 133.506 145.027 131.034L145.028 131.05Z" fill="white"/>
</g>
<defs>
<clipPath id="clip0_992_2802">
<rect width="305" height="123.934" fill="white" transform="translate(0 26.876) rotate(-5.05534)"/>
</clipPath>
</defs>
</svg>
