<svg width="306" height="90" viewBox="0 0 306 90" fill="none" xmlns="http://www.w3.org/2000/svg">
<path d="M134.381 83.5948C167.442 84.3103 204.332 83.6296 240.74 78.8325C252.044 77.3428 263.234 75.4835 273.716 72.1247C278.441 70.6141 283.081 68.815 287.242 66.6438C290.281 65.058 292.944 62.8757 294.943 60.577C299.708 55.0725 298.657 49.1538 291.866 44.6501C287.872 42.0103 283.243 39.7345 278.487 37.8421C264.629 32.3402 249.898 28.4034 234.807 25.1721C222.307 22.4956 209.518 21.1437 196.67 20.075C195.161 19.9494 193.504 19.9551 192.2 19.472C191.163 19.0902 189.788 17.9765 189.938 17.3658C190.13 16.5055 191.394 15.5373 192.556 15.1361C193.638 14.7547 195.205 15.0082 196.558 15.048C217.498 15.6925 237.604 19.4562 257.099 25.046C266.602 27.7688 275.912 30.9638 284.957 34.4342C289.715 36.2582 294.159 38.8009 297.973 41.5708C306.035 47.4127 307.422 54.9651 302.466 62.1519C299.887 65.9012 296.047 68.8722 291.381 71.3325C283.156 75.6671 273.786 78.2803 264.052 80.366C245.245 84.3912 225.863 86.3513 206.284 87.5962C183.001 89.0775 159.614 89.5047 136.172 88.8909C108.098 88.1475 80.234 86.0649 52.9684 80.3864C42.0936 78.1252 31.6807 75.0255 22.1167 70.5423C15.8868 67.6238 10.2154 64.2584 5.95529 59.8048C-0.940863 52.6031 -1.37787 45.2121 4.21 37.7411C7.34797 33.5449 11.8728 30.1661 16.926 27.1383C30.244 19.1495 45.7793 14.0301 62.1605 10.1299C83.5413 5.03772 105.713 2.6125 128.249 1.51385C157.121 0.118587 185.919 1.50592 214.594 4.87488C239.352 7.78728 263.711 11.9745 286.951 19.213C289.927 20.1362 292.8 21.2609 295.674 22.3515C297.684 23.1125 298.964 24.2227 298.024 25.9222C297.323 27.1856 295.335 27.4985 292.742 26.5555C278.13 21.1963 262.473 18.1719 246.798 15.2039C228.434 11.7231 209.813 9.55681 191.026 7.98923C157.661 5.2189 124.58 5.84977 91.8033 10.2478C74.1419 12.6155 57.1132 16.3656 41.1522 22.211C32.8972 25.2317 25.1004 28.772 18.4867 33.4645C15.9983 35.2309 13.6629 37.163 11.7674 39.2602C5.84819 45.8054 6.42375 52.4824 13.8627 58.3919C17.6213 61.3653 22.0932 64.0118 26.7234 66.2647C37.0629 71.3024 48.7429 74.1762 60.6865 76.3978C83.5931 80.6556 106.891 82.5767 134.381 83.5834L134.381 83.5948Z" fill="#47D487"/>
</svg>
