<svg width="37" height="37" viewBox="0 0 37 37" fill="none" xmlns="http://www.w3.org/2000/svg">
<g clip-path="url(#clip0_992_3265)">
<path d="M21.7131 17.8935L17.5355 15.9442C17.1709 15.7749 16.8714 15.9646 16.8714 16.3683V20.04C16.8714 20.4436 17.1709 20.6333 17.5355 20.4641L21.7113 18.5148C22.0777 18.3436 22.0777 18.0646 21.7131 17.8935ZM18.7315 0.347656C8.86949 0.347656 0.875 8.34215 0.875 18.2041C0.875 28.0661 8.86949 36.0606 18.7315 36.0606C28.5934 36.0606 36.5879 28.0661 36.5879 18.2041C36.5879 8.34215 28.5934 0.347656 18.7315 0.347656ZM18.7315 25.4583C9.59119 25.4583 9.43122 24.6343 9.43122 18.2041C9.43122 11.7739 9.59119 10.9499 18.7315 10.9499C27.8717 10.9499 28.0317 11.7739 28.0317 18.2041C28.0317 24.6343 27.8717 25.4583 18.7315 25.4583Z" fill="black"/>
</g>
<defs>
<clipPath id="clip0_992_3265">
<rect width="35.7129" height="35.7129" fill="white" transform="translate(0.875 0.347656)"/>
</clipPath>
</defs>
</svg>
